<svg width="312" height="660" viewBox="0 0 312 660" fill="none" xmlns="http://www.w3.org/2000/svg">
<path d="M271.725 55H40.3C35.0387 54.9967 29.8284 56.0314 24.9676 58.0448C20.1068 60.0582 15.691 63.0108 11.973 66.7334C8.25504 70.456 5.30799 74.8755 3.30065 79.7389C1.29332 84.6022 0.265137 89.8137 0.275003 95.075V565C0.271716 570.257 1.30475 575.463 3.31503 580.321C5.32531 585.178 8.27341 589.592 11.9907 593.309C15.708 597.027 20.1217 599.975 24.9792 601.985C29.8368 603.995 35.0429 605.028 40.3 605.025H271.725C293.8 605.025 311.725 587.075 311.725 565V95.075C311.725 72.95 293.8 55 271.725 55ZM115.55 80.575H198.1V99.775H115.55V80.575ZM156.025 565.45C149.253 565.443 142.759 562.754 137.966 557.97C133.172 553.186 130.47 546.697 130.45 539.925C130.741 533.344 133.56 527.13 138.32 522.576C143.08 518.022 149.413 515.481 156 515.481C162.587 515.481 168.92 518.022 173.68 522.576C178.44 527.13 181.259 533.344 181.55 539.925C181.525 552.275 170.05 565.45 156.025 565.45ZM281.725 477.925H30.275V122.6H281.725V477.925Z" fill="black"/>
</svg>
